<svg width="39" height="38" viewBox="0 0 39 38" fill="none" xmlns="http://www.w3.org/2000/svg">
<path d="M29.4095 3.16666H10.4095C7.78115 3.16666 5.65948 5.27249 5.65948 7.86916V25.1433C5.65948 27.74 7.78115 29.8458 10.4095 29.8458H11.6128C12.8795 29.8458 14.0828 30.3367 14.9695 31.2233L17.677 33.8992C18.912 35.1183 20.9228 35.1183 22.1578 33.8992L24.8653 31.2233C25.752 30.3367 26.9712 29.8458 28.222 29.8458H29.4095C32.0378 29.8458 34.1595 27.74 34.1595 25.1433V7.86916C34.1595 5.27249 32.0378 3.16666 29.4095 3.16666ZM17.3445 20.5992C17.9937 20.5992 18.532 21.1375 18.532 21.7867C18.532 22.4358 17.9937 22.9742 17.3445 22.9742H13.1012C12.4045 22.9742 11.7553 22.6417 11.3437 22.0717C10.9478 21.5333 10.8528 20.8683 11.0428 20.235C11.597 18.5408 12.9587 17.6225 14.162 16.7992C15.4287 15.9442 16.1412 15.4058 16.1412 14.4875C16.1412 13.6642 15.4762 12.9992 14.6528 12.9992C13.8295 12.9992 13.1803 13.68 13.1803 14.5033C13.1803 15.1525 12.642 15.6908 11.9928 15.6908C11.3437 15.6908 10.8053 15.1525 10.8053 14.5033C10.8053 12.3817 12.5312 10.64 14.6687 10.64C16.8062 10.64 18.532 12.3658 18.532 14.5033C18.532 16.7358 16.8537 17.8758 15.5078 18.7942C14.6687 19.3642 13.877 19.9025 13.4812 20.615H17.3445V20.5992ZM27.8262 20.71H27.4937V21.8025C27.4937 22.4517 26.9553 22.99 26.3062 22.99C25.657 22.99 25.1187 22.4517 25.1187 21.8025V20.71H22.0153C22.0153 20.71 22.0153 20.71 21.9995 20.71C21.2237 20.71 20.5112 20.2983 20.1153 19.6333C19.7195 18.9525 19.7195 18.1133 20.1153 17.4483C21.192 15.5958 22.4428 13.49 23.5828 11.6533C24.0895 10.8458 25.0553 10.4817 25.9578 10.735C26.8603 11.0042 27.4937 11.8275 27.4778 12.7775V18.3508H27.8262C28.4753 18.3508 29.0137 18.8892 29.0137 19.5383C29.0137 20.1875 28.4753 20.71 27.8262 20.71Z" fill="#EB5252"/>
<path d="M25.1187 18.335V13.68C24.1845 15.2 23.2187 16.8308 22.3478 18.3192H25.1187V18.335Z" fill="#EB5252"/>
</svg>
