<svg width="39" height="38" viewBox="0 0 39 38" fill="none" xmlns="http://www.w3.org/2000/svg">
<path d="M19.9177 3.16666C11.1936 3.16666 4.0844 10.2758 4.0844 19C4.0844 27.7242 11.1936 34.8333 19.9177 34.8333C28.6419 34.8333 35.7511 27.7242 35.7511 19C35.7511 10.2758 28.6419 3.16666 19.9177 3.16666ZM26.8052 24.6525C26.5836 25.0325 26.1877 25.2383 25.7761 25.2383C25.5702 25.2383 25.3644 25.1908 25.1744 25.0642L20.2661 22.135C19.0469 21.4067 18.1444 19.8075 18.1444 18.3983V11.9067C18.1444 11.2575 18.6827 10.7192 19.3319 10.7192C19.9811 10.7192 20.5194 11.2575 20.5194 11.9067V18.3983C20.5194 18.9683 20.9944 19.8075 21.4852 20.0925L26.3936 23.0217C26.9636 23.3542 27.1536 24.0825 26.8052 24.6525Z" fill="#EB5252"/>
</svg>
