<svg width="64" height="64" viewBox="0 0 64 64" fill="none" xmlns="http://www.w3.org/2000/svg">
<path d="M31.92 5.33334C17.2 5.33334 5.25336 17.28 5.25336 32C5.25336 46.72 17.2 58.6667 31.92 58.6667C46.64 58.6667 58.5867 46.72 58.5867 32C58.5867 17.28 46.6667 5.33334 31.92 5.33334ZM46.4 43.8133C43.12 48.5333 37.7334 51.3333 32 51.3333C26.2667 51.3333 20.88 48.5333 17.6 43.8133C16.96 42.9067 17.2 41.6533 18.1067 41.04C19.0134 40.4 20.2667 40.64 20.88 41.5467C23.4134 45.1733 27.5734 47.36 32 47.36C36.4267 47.36 40.5867 45.2 43.12 41.5467C43.76 40.64 44.9867 40.4267 45.8934 41.04C46.8267 41.6533 47.04 42.9067 46.4 43.8133Z" fill="#EB5252"/>
</svg>
