<svg width="38" height="38" viewBox="0 0 38 38" fill="none" xmlns="http://www.w3.org/2000/svg">
<path d="M34.1366 17.005L31.9833 14.5033C31.5716 14.0283 31.2391 13.1417 31.2391 12.5083V9.81668C31.2391 8.13834 29.8616 6.76084 28.1833 6.76084H25.4916C24.8741 6.76084 23.9716 6.42834 23.4966 6.01668L20.995 3.86334C19.9025 2.92918 18.1133 2.92918 17.005 3.86334L14.5191 6.03251C14.0441 6.42834 13.1416 6.76084 12.5241 6.76084H9.78498C8.10664 6.76084 6.72914 8.13834 6.72914 9.81668V12.5242C6.72914 13.1417 6.39664 14.0283 6.00081 14.5033L3.86331 17.0208C2.94498 18.1133 2.94498 19.8867 3.86331 20.9792L6.00081 23.4967C6.39664 23.9717 6.72914 24.8583 6.72914 25.4758V28.1833C6.72914 29.8617 8.10664 31.2392 9.78498 31.2392H12.5241C13.1416 31.2392 14.0441 31.5717 14.5191 31.9833L17.0208 34.1367C18.1133 35.0708 19.9025 35.0708 21.0108 34.1367L23.5125 31.9833C23.9875 31.5717 24.8741 31.2392 25.5075 31.2392H28.1991C29.8775 31.2392 31.255 29.8617 31.255 28.1833V25.4917C31.255 24.8742 31.5875 23.9717 31.9991 23.4967L34.1525 20.995C35.0708 19.9025 35.0708 18.0975 34.1366 17.005ZM26.41 19L24.5575 24.6367C24.32 25.5708 23.3225 26.3308 22.3091 26.3308H19.38C18.8733 26.3308 18.1608 26.1567 17.8441 25.84L15.5166 24.0192C15.4691 25.0325 15.01 25.46 13.8858 25.46H13.1258C11.9541 25.46 11.4791 25.0008 11.4791 23.8925V16.3242C11.4791 15.2158 11.9541 14.7567 13.1258 14.7567H13.9016C15.0733 14.7567 15.5483 15.2158 15.5483 16.3242V16.8942L18.62 12.3342C18.9366 11.8433 19.7441 11.495 20.425 11.7642C21.1691 12.0175 21.6441 12.8408 21.4858 13.5692L21.1058 16.0392C21.0741 16.2608 21.1216 16.4667 21.2641 16.625C21.3908 16.7675 21.5808 16.8625 21.7866 16.8625H24.8741C25.4758 16.8625 25.9825 17.1 26.2833 17.5275C26.5525 17.9392 26.6 18.4617 26.41 19Z" fill="#EB5252"/>
</svg>
