<svg width="64" height="64" viewBox="0 0 64 64" fill="none" xmlns="http://www.w3.org/2000/svg">
<path d="M45.3333 6.48001H18.6666C10.6666 6.48001 5.33331 11.8133 5.33331 19.8133V35.8133C5.33331 43.8133 10.6666 49.1467 18.6666 49.1467V54.8267C18.6666 56.96 21.04 58.24 22.8 57.04L34.6666 49.1467H45.3333C53.3333 49.1467 58.6666 43.8133 58.6666 35.8133V19.8133C58.6666 11.8133 53.3333 6.48001 45.3333 6.48001ZM32 38.9333C30.88 38.9333 30 38.0267 30 36.9333C30 35.84 30.88 34.9333 32 34.9333C33.12 34.9333 34 35.84 34 36.9333C34 38.0267 33.12 38.9333 32 38.9333ZM35.36 27.8667C34.32 28.56 34 29.0133 34 29.76V30.32C34 31.4133 33.0933 32.32 32 32.32C30.9066 32.32 30 31.4133 30 30.32V29.76C30 26.6667 32.2666 25.1467 33.12 24.56C34.1066 23.8933 34.4266 23.44 34.4266 22.7467C34.4266 21.4133 33.3333 20.32 32 20.32C30.6666 20.32 29.5733 21.4133 29.5733 22.7467C29.5733 23.84 28.6666 24.7467 27.5733 24.7467C26.48 24.7467 25.5733 23.84 25.5733 22.7467C25.5733 19.2 28.4533 16.32 32 16.32C35.5466 16.32 38.4266 19.2 38.4266 22.7467C38.4266 25.7867 36.1866 27.3067 35.36 27.8667Z" fill="#EB5252"/>
</svg>
