<svg width="32" height="32" viewBox="0 0 32 32" fill="none" xmlns="http://www.w3.org/2000/svg">
<path d="M21.3333 2.66675H10.6667C5.33333 2.66675 2.66667 5.33341 2.66667 10.6667V28.0001C2.66667 28.7334 3.26667 29.3334 4 29.3334H21.3333C26.6667 29.3334 29.3333 26.6667 29.3333 21.3334V10.6667C29.3333 5.33341 26.6667 2.66675 21.3333 2.66675ZM18.6667 20.3334H9.33333C8.78667 20.3334 8.33333 19.8801 8.33333 19.3334C8.33333 18.7867 8.78667 18.3334 9.33333 18.3334H18.6667C19.2133 18.3334 19.6667 18.7867 19.6667 19.3334C19.6667 19.8801 19.2133 20.3334 18.6667 20.3334ZM22.6667 13.6667H9.33333C8.78667 13.6667 8.33333 13.2134 8.33333 12.6667C8.33333 12.1201 8.78667 11.6667 9.33333 11.6667H22.6667C23.2133 11.6667 23.6667 12.1201 23.6667 12.6667C23.6667 13.2134 23.2133 13.6667 22.6667 13.6667Z" fill="#292D32"/>
</svg>
