<svg width="32" height="32" viewBox="0 0 32 32" fill="none" xmlns="http://www.w3.org/2000/svg">
<path d="M22.6667 3.23999H9.33332C5.33332 3.23999 2.66666 5.90666 2.66666 9.90666V17.9067C2.66666 21.9067 5.33332 24.5733 9.33332 24.5733V27.4133C9.33332 28.48 10.52 29.12 11.4 28.52L17.3333 24.5733H22.6667C26.6667 24.5733 29.3333 21.9067 29.3333 17.9067V9.90666C29.3333 5.90666 26.6667 3.23999 22.6667 3.23999ZM16 19.4667C15.44 19.4667 15 19.0133 15 18.4667C15 17.92 15.44 17.4667 16 17.4667C16.56 17.4667 17 17.92 17 18.4667C17 19.0133 16.56 19.4667 16 19.4667ZM17.68 13.9333C17.16 14.28 17 14.5067 17 14.88V15.16C17 15.7067 16.5467 16.16 16 16.16C15.4533 16.16 15 15.7067 15 15.16V14.88C15 13.3333 16.1333 12.5733 16.56 12.28C17.0533 11.9467 17.2133 11.72 17.2133 11.3733C17.2133 10.7067 16.6667 10.16 16 10.16C15.3333 10.16 14.7867 10.7067 14.7867 11.3733C14.7867 11.92 14.3333 12.3733 13.7867 12.3733C13.24 12.3733 12.7867 11.92 12.7867 11.3733C12.7867 9.59999 14.2267 8.15999 16 8.15999C17.7733 8.15999 19.2133 9.59999 19.2133 11.3733C19.2133 12.8933 18.0933 13.6533 17.68 13.9333Z" fill="#403E3B"/>
</svg>
