<svg width="38" height="38" viewBox="0 0 38 38" fill="none" xmlns="http://www.w3.org/2000/svg">
<path d="M26.6475 24.7633C27.7083 24.0667 29.1016 24.8267 29.1016 26.0933V28.1358C29.1016 30.1467 27.5342 32.3 25.65 32.9333L20.5991 34.6117C19.7125 34.9125 18.2716 34.9125 17.4008 34.6117L12.35 32.9333C10.45 32.3 8.89832 30.1467 8.89832 28.1358V26.0775C8.89832 24.8267 10.2916 24.0667 11.3366 24.7475L14.5983 26.8692C15.8491 27.7083 17.4325 28.12 19.0158 28.12C20.5991 28.12 22.1825 27.7083 23.4333 26.8692L26.6475 24.7633Z" fill="#EB5252"/>
<path d="M31.635 10.2283L22.1509 4.00584C20.4409 2.88168 17.6225 2.88168 15.9125 4.00584L6.38086 10.2283C3.32503 12.2075 3.32503 16.6883 6.38086 18.6833L8.9142 20.33L15.9125 24.89C17.6225 26.0142 20.4409 26.0142 22.1509 24.89L29.1017 20.33L31.2709 18.905V23.75C31.2709 24.3992 31.8092 24.9375 32.4584 24.9375C33.1075 24.9375 33.6459 24.3992 33.6459 23.75V15.96C34.2792 13.9175 33.63 11.5425 31.635 10.2283Z" fill="#EB5252"/>
</svg>
